<svg version="1" xmlns="http://www.w3.org/2000/svg" width="240" height="240" viewBox="0 0 180.000000 180.000000"><path d="M76.7 1C41.2 6.6 12.1 33 2.8 68c-3.2 12.1-3.2 31.9 0 43.9 8.9 33.1 33.7 57.5 66.9 65.8 9.3 2.3 31.3 2.3 40.6 0 39.5-9.8 67.1-42.9 69.4-83.2 2.4-42.1-25.9-80.6-67.2-91.5C103.3.6 85.6-.4 76.7 1zm16 22.8c2 1.3 46.3 70.4 46.3 72.3 0 1-1 2.5-2.2 3.3-2 1.4-8.1 1.6-47.3 1.6-39.2 0-45.3-.2-47.3-1.6-1.2-.8-2.2-2.3-2.2-3.3 0-1.5 8.6-15.3 41.6-66.4 3.7-5.6 4.8-6.7 7.1-6.7 1.6 0 3.3.4 4 .8zm44.9 92.7c5.5 2.3 7.9 10 5.3 17.3-2.2 6.3-1 6.2-53.4 6.2-30.8 0-48.3-.4-49.6-1-7.6-4.1-6-20.5 2.3-22.9 1.8-.5 23-1 47.6-1 36.7-.1 44.9.1 47.8 1.4z"/></svg>